<svg width="20" height="16" viewBox="0 0 20 16" xmlns="http://www.w3.org/2000/svg"><title>2FA6C9FF-036E-4538-9FA8-6C2E0E524712</title><path d="M20 1.894a8.31 8.31 0 0 1-2.357.636A4.05 4.05 0 0 0 19.447.296a8.26 8.26 0 0 1-2.606.979A4.123 4.123 0 0 0 13.846 0c-2.265 0-4.102 1.809-4.102 4.039 0 .317.035.624.106.92A11.715 11.715 0 0 1 1.392.739 3.98 3.98 0 0 0 .837 2.77c0 1.4.725 2.636 1.825 3.361a4.162 4.162 0 0 1-1.86-.504v.05c0 1.958 1.415 3.59 3.293 3.96a4.065 4.065 0 0 1-1.081.142c-.265 0-.522-.024-.772-.071a4.096 4.096 0 0 0 3.833 2.803 8.317 8.317 0 0 1-5.096 1.73A8.33 8.33 0 0 1 0 14.185 11.755 11.755 0 0 0 6.289 16c7.55 0 11.675-6.154 11.675-11.492 0-.175-.003-.35-.011-.523A8.235 8.235 0 0 0 20 1.895" fill="#8C9399" fill-rule="evenodd"/></svg>